<svg xmlns="http://www.w3.org/2000/svg" height="659.70801" width="669.95734"><defs><clipPath id="a" clipPathUnits="userSpaceOnUse"><path d="M0 494.781h502.468V0H0z"/></clipPath></defs><g clip-path="url(#a)" transform="matrix(1.33333 0 0 -1.33333 0 659.708)"><path d="M307.8664 279.9927c-.042-3.203.316-5.984-4.509-5.836-9.608.316-19.237-.043-28.866.168-3.097.063-4.277-.779-3.94-3.94.506-4.635-1.96-10.683 1.053-13.548 2.318-2.233 8.302-.674 12.664-.716 4.719-.064 9.46-.148 14.18.021 5.309.168 3.561-3.709 3.813-6.385.274-2.886.253-5.309-3.982-5.162-7.922.274-15.866-.063-23.788.148-3.16.084-4.024-.906-3.961-4.004.19-8.933-.063-17.888.126-26.822.064-3.455-.906-5.162-4.551-4.741-1.159.148-2.381.148-3.54 0-3.75-.463-5.014 1.117-4.951 4.889.19 11.125.063 22.271.063 33.417 0 11.125.084 22.271-.063 33.417-.042 3.413.927 4.804 4.572 4.762 13.675-.19 27.349-.253 41.024.021 4.656.084 4.719-2.339 4.656-5.689M374.9748 228.7943c-1.201-9.987-10.767-18.584-22.376-20.291-11.442-1.706-22.44-.105-33.228 3.983-2.971 1.137-4.446 2.654-3.94 5.878.484 3.266-1.623 7.649 1.159 9.587 2.971 2.107 5.267-2.318 7.964-3.603 8.428-3.961 16.962-6.468 26.359-4.614 2.865.548 5.52 1.517 7.733 3.455 5.625 4.889 4.509 12.706-2.381 15.508-6.448 2.634-13.485 2.739-20.207 4.298-8.343 1.939-15.802 5.099-18.92 14.033-4.952 14.033 5.225 27.918 21.66 29.561 2.507.253 5.035.253 7.564.358 7.522.106 14.707-1.496 21.807-3.855 2.761-.928 4.509-2.149 3.877-5.352-.084-.316.021-.674-.021-1.011-.421-2.908 1.538-6.827-1.074-8.597-2.718-1.833-4.72 2.149-7.185 3.245-7.248 3.202-14.686 4.972-22.609 4.003-1.959-.232-4.003-.716-5.815-1.538-3.94-1.791-6.511-4.636-6.237-9.419.253-4.635 3.013-7.1 7.08-8.069 6.89-1.623 13.885-2.676 20.775-4.278 13.337-3.118 19.49-11.209 18.015-23.282" fill="#fff"/><path d="M384.7545 231.755c.079-27.161-11.281-49.577-27.832-69.924-24.314-29.875-54.941-52.173-87.781-71.664-5.601-3.347-11.36-6.444-17.909-10.134v6.128c0 108.958.039 217.89-.132 326.822-.013 5.06 1.436 5.983 6.154 5.97 40.708-.198 81.416-.172 122.097-.027 4.138 0 5.443-.948 5.443-5.271-.145-60.633-.251-121.254-.04-181.9m-145.87-.725c-.462-11.175-9.094-20.084-21.758-22.522-3.334-.632-6.668-1.093-9.001-.922-9.251 0-17.052 1.766-24.762 4.507-3.597 1.278-4.889 3.044-4.81 6.919.251 10.977 0 10.872 9.489 5.693 9.198-5.008 18.963-7.011 29.255-3.98 4.218 1.238 7.552 3.637 7.987 8.684.434 4.982-1.74 7.999-6.392 9.502-6.774 2.187-13.916 2.49-20.782 4.217-12.032 3.004-18.463 9.91-18.726 20.097-.304 11.742 7.999 20.993 20.993 23.233 11.267 1.95 22.1.026 32.761-3.756 2.741-.975 3.189-2.649 2.886-5.007-.422-3.256 1.647-7.525-1.147-9.594-3.123-2.32-5.35 2.174-8.144 3.321-8.46 3.452-17 5.666-26.04 2.912-4.454-1.357-7.92-4.032-8.078-9.198-.145-4.652 2.635-7.604 8.618-9.001 5.891-1.384 11.926-2.214 17.817-3.637 14.351-3.466 20.295-10.016 19.834-21.468m-119.87 6.115c4.177-15.3 17.883-21.678 34.052-15.972 4.007 1.41 7.631 3.518 10.899 6.233 1.041.883 2.122 1.885 3.584 1.107 1.384-.725 1.424-2.148 1.411-3.532-.027-2.53-.093-5.06.026-7.59.079-1.806-.778-2.781-2.28-3.506-11.874-5.785-24.156-8.289-37.189-4.665-15.116 4.204-24.525 17.066-25.026 34.079-.039 1.344 0 2.689 0 4.046 0 20.453 9.436 34.158 26.7 38.52 12.321 3.11 23.997.738 35.278-4.599 1.95-.923 2.715-2.293 2.517-4.402-.119-1.331.105-2.714-.053-4.045-.25-2.214 1.16-5.1-1.542-6.418-2.477-1.213-3.861 1.436-5.587 2.596-4.955 3.347-10.253 5.838-16.262 6.405-16.526 1.555-26.686-7.723-27.714-25.224-.251-4.388.026-8.79 1.186-13.033m323.066-.33c-.778 72.442-.211 144.896-.224 217.337 0 14.522-7.551 22.06-22.153 22.06H83.3275c-15.827 0-22.93-6.997-22.93-22.759-.027-73.956.026-147.926-.027-221.883 0-13.573 1.331-26.923 5.021-40.009 9.12-32.366 27.411-59.17 50.46-82.984 36.095-37.307 78.912-65.14 125.457-87.609 6.8-3.281 13.02-3.149 19.781.092 17.211 8.21 33.921 17.304 50.025 27.49 36.306 23.01 69.673 49.419 95.74 84.051 23.194 30.824 35.647 64.983 35.226 104.214" fill="#fff"/><path d="M307.8664 279.9927c-.042-3.203.316-5.984-4.509-5.836-9.608.316-19.237-.043-28.866.168-3.097.063-4.277-.779-3.94-3.94.506-4.635-1.96-10.683 1.053-13.548 2.318-2.233 8.302-.674 12.664-.716 4.719-.064 9.46-.148 14.18.021 5.309.168 3.561-3.709 3.813-6.385.274-2.886.253-5.309-3.982-5.162-7.922.274-15.866-.063-23.788.148-3.16.084-4.024-.906-3.961-4.004.19-8.933-.063-17.888.126-26.822.064-3.455-.906-5.162-4.551-4.741-1.159.148-2.381.148-3.54 0-3.75-.463-5.014 1.117-4.951 4.889.19 11.125.063 22.271.063 33.417 0 11.125.084 22.271-.063 33.417-.042 3.413.927 4.804 4.572 4.762 13.675-.19 27.349-.253 41.024.021 4.656.084 4.719-2.339 4.656-5.689M374.9748 228.7943c-1.201-9.987-10.767-18.584-22.376-20.291-11.442-1.706-22.44-.105-33.228 3.983-2.971 1.137-4.446 2.654-3.94 5.878.484 3.266-1.623 7.649 1.159 9.587 2.971 2.107 5.267-2.318 7.964-3.603 8.428-3.961 16.962-6.468 26.359-4.614 2.865.548 5.52 1.517 7.733 3.455 5.625 4.889 4.509 12.706-2.381 15.508-6.448 2.634-13.485 2.739-20.207 4.298-8.343 1.939-15.802 5.099-18.92 14.033-4.952 14.033 5.225 27.918 21.66 29.561 2.507.253 5.035.253 7.564.358 7.522.106 14.707-1.496 21.807-3.855 2.761-.928 4.509-2.149 3.877-5.352-.084-.316.021-.674-.021-1.011-.421-2.908 1.538-6.827-1.074-8.597-2.718-1.833-4.72 2.149-7.185 3.245-7.248 3.202-14.686 4.972-22.609 4.003-1.959-.232-4.003-.716-5.815-1.538-3.94-1.791-6.511-4.636-6.237-9.419.253-4.635 3.013-7.1 7.08-8.069 6.89-1.623 13.885-2.676 20.775-4.278 13.337-3.118 19.49-11.209 18.015-23.282" fill="#fff"/><path d="M374.9748 228.7943c-1.201-9.987-10.767-18.584-22.376-20.291-11.442-1.706-22.44-.105-33.228 3.983-2.971 1.137-4.446 2.654-3.94 5.878.484 3.266-1.623 7.649 1.159 9.587 2.971 2.107 5.267-2.318 7.964-3.603 8.428-3.961 16.962-6.468 26.359-4.614 2.865.548 5.52 1.517 7.733 3.455 5.625 4.889 4.509 12.706-2.381 15.508-6.448 2.634-13.485 2.739-20.207 4.298-8.343 1.939-15.802 5.099-18.92 14.033-4.952 14.033 5.225 27.918 21.66 29.561 2.507.253 5.035.253 7.564.358 7.522.106 14.707-1.496 21.807-3.855 2.761-.928 4.509-2.149 3.877-5.352-.084-.316.021-.674-.021-1.011-.421-2.908 1.538-6.827-1.074-8.597-2.718-1.833-4.72 2.149-7.185 3.245-7.248 3.202-14.686 4.972-22.609 4.003-1.959-.232-4.003-.716-5.815-1.538-3.94-1.791-6.511-4.636-6.237-9.419.253-4.635 3.013-7.1 7.08-8.069 6.89-1.623 13.885-2.676 20.775-4.278 13.337-3.118 19.49-11.209 18.015-23.282M307.8664 279.9927c-.042-3.203.316-5.984-4.509-5.836-9.608.316-19.237-.043-28.866.168-3.097.063-4.277-.779-3.94-3.94.506-4.635-1.96-10.683 1.053-13.548 2.318-2.233 8.302-.674 12.664-.716 4.719-.064 9.46-.148 14.18.021 5.309.168 3.561-3.709 3.813-6.385.274-2.886.253-5.309-3.982-5.162-7.922.274-15.866-.063-23.788.148-3.16.084-4.024-.906-3.961-4.004.19-8.933-.063-17.888.126-26.822.064-3.455-.906-5.162-4.551-4.741-1.159.148-2.381.148-3.54 0-3.75-.463-5.014 1.117-4.951 4.889.19 11.125.063 22.271.063 33.417 0 11.125.084 22.271-.063 33.417-.042 3.413.927 4.804 4.572 4.762 13.675-.19 27.349-.253 41.024.021 4.656.084 4.719-2.339 4.656-5.689" fill="#fff"/></g></svg>