<svg xmlns="http://www.w3.org/2000/svg" width="1653" height="1312" fill="none"><defs/><g clip-path="url(#clip0)"><path fill="url(#paint0_linear)" d="M458 667L0 803l84 282 458-137-84-281z"/><path fill="#fff" d="M450 677L8 809l78 262 442-132-78-262z"/><g fill="#F55F44" opacity=".6"><path d="M45 864l57-16-13-42-56 17 12 41zM116 932l216-65-4-13-216 64 4 14zM183 943l157-47-2-9-158 47 3 9z" opacity=".6"/></g><path fill="url(#paint1_linear)" d="M1171 0l-56 288 469 91 56-288-469-91z"/><path fill="#fff" d="M1176 8l-53 269 453 88 53-268-453-89z"/><g fill="#F55F44" opacity=".6"><path d="M1183 75l58 11 8-42-58-11-8 42zM1214 167l221 44 3-14-221-43-3 13zM1268 209l162 32 1-10-161-31-2 9z" opacity=".6"/></g><path fill="url(#paint2_linear)" d="M1463 569l-269 117 190 438 269-117-190-438z"/><path fill="#fff" d="M1459 577l-252 109 184 424 251-109-183-424z"/><g fill="#47E6B1" opacity=".6"><path d="M1407 621l24 54 40-17-24-54-40 17zM1349 699l90 207 13-6-90-207-13 6zM1345 767l66 151 8-4-65-151-9 4z" opacity=".6"/></g><path fill="url(#paint3_linear)" d="M578 2L127 162l99 276 450-159L578 2z"/><path fill="#fff" d="M570 12L135 167l92 258 435-154-92-259z"/><g fill="#6C63FF" opacity=".6"><path d="M176 221l55-20-14-41-56 20 15 41zM249 284l213-75-5-13-212 75 4 13zM317 293l155-55-3-9-155 55 3 9z" opacity=".6"/></g><path fill="url(#paint4_linear)" d="M827 17L271 541v771h1112V541L827 17z"/><path fill="#fff" d="M1378 1295H276V540L827 27l551 513v755z"/><path fill="url(#paint5_linear)" d="M1210 132H444v902h766V132z"/><path fill="#fff" d="M1201 140H453v894h748V140z"/><path fill="#F5F5F5" d="M276 540l551 377-551 378V540zM1378 540L827 917l551 378V540z"/><path fill="url(#paint6_linear)" d="M276 1295l529-411a35 35 0 0144 0l529 411H276z"/><path fill="#fff" d="M276 1295l529-393a36 36 0 0144 0l529 393H276z"/><path fill="#47E6B1" d="M723 312H567v27h156v-27z"/><path fill="#F5F5F5" d="M1087 382H567v26h520v-26zM1087 427H567v26h520v-26zM1087 472H567v26h520v-26zM1087 517H567v27h520v-27zM804 562H567v27h237v-27z"/><path fill="#6C63FF" d="M1087 562H851v27h236v-27z"/></g><defs><linearGradient id="paint0_linear" x1="312.8" x2="228.9" y1="1016.3" y2="735" gradientUnits="userSpaceOnUse"><stop stop-color="gray" stop-opacity=".3"/><stop offset=".5" stop-color="gray" stop-opacity=".1"/><stop offset="1" stop-color="gray" stop-opacity=".1"/></linearGradient><linearGradient id="paint1_linear" x1="35650.6" x2="49770.3" y1="83619.4" y2="11102.6" gradientUnits="userSpaceOnUse"><stop stop-color="gray" stop-opacity=".3"/><stop offset=".5" stop-color="gray" stop-opacity=".1"/><stop offset="1" stop-color="gray" stop-opacity=".1"/></linearGradient><linearGradient id="paint2_linear" x1="-170674" x2="-102889" y1="152054" y2="122646" gradientUnits="userSpaceOnUse"><stop stop-color="gray" stop-opacity=".3"/><stop offset=".5" stop-color="gray" stop-opacity=".1"/><stop offset="1" stop-color="gray" stop-opacity=".1"/></linearGradient><linearGradient id="paint3_linear" x1="-4759.4" x2="-19935.5" y1="72487.4" y2="29695.4" gradientUnits="userSpaceOnUse"><stop stop-color="gray" stop-opacity=".3"/><stop offset=".5" stop-color="gray" stop-opacity=".1"/><stop offset="1" stop-color="gray" stop-opacity=".1"/></linearGradient><linearGradient id="paint4_linear" x1="484931" x2="484931" y1="894801" y2="11940" gradientUnits="userSpaceOnUse"><stop stop-color="gray" stop-opacity=".3"/><stop offset=".5" stop-color="gray" stop-opacity=".1"/><stop offset="1" stop-color="gray" stop-opacity=".1"/></linearGradient><linearGradient id="paint5_linear" x1="334460" x2="334460" y1="491371" y2="62890.8" gradientUnits="userSpaceOnUse"><stop stop-color="gray" stop-opacity=".3"/><stop offset=".5" stop-color="gray" stop-opacity=".1"/><stop offset="1" stop-color="gray" stop-opacity=".1"/></linearGradient><linearGradient id="paint6_linear" x1="661325" x2="661325" y1="330477" y2="237998" gradientUnits="userSpaceOnUse"><stop stop-color="gray" stop-opacity=".3"/><stop offset=".5" stop-color="gray" stop-opacity=".1"/><stop offset="1" stop-color="gray" stop-opacity=".1"/></linearGradient><clipPath id="clip0"><path fill="#fff" d="M0 0h1653v1312H0z"/></clipPath></defs></svg>