<svg xmlns="http://www.w3.org/2000/svg" viewBox="0 0 462.7 533.3"><defs/><defs><clipPath id="a" clipPathUnits="userSpaceOnUse"><path d="M0 400h347V0H0z"/></clipPath></defs><g clip-path="url(#a)" transform="matrix(1.33333 0 0 -1.33333 0 533.3)"><path fill="#d4ecff" d="M347 98.6l-66.2-41a15.7 15.7 0 01-5-21.6L298 0h49z"/><path fill="#5793ce" d="M261.4 94.8l-.4 1.8 5.3 1.4.5-1.8zM258.7 92.1l-.5 1.9 5.4 1.3.5-1.8z"/><path fill="#5793ce" d="M256 89.4l-.5 1.9 5.3 1.4.5-1.9z"/><path fill="#5793ce" d="M253.2 86.8l-.5 1.8 5.4 1.4.5-1.9z"/><path fill="#c4d9e8" d="M77 206.3c-3.3-2-8.9-2-12.3 0-3.4 1.9-3.5 5 0 7 3.3 2 8.9 2 12.3.1 3.4-2 3.5-5.1 0-7.1m71 56.6l-50.4-29.6c-12.8 4-29 2.7-39.8-3.6-13-7.7-13-20 .2-27.4 3-1.7 6.3-3 9.9-4a51.1 51.1 0 0137.6 4.2c9.8 5.8 12.2 14.1 7.3 21.1l7 4-.3 4.5h7.4l-.2 4.2h7.3l-.2 4.2h7.3l-.2 4.1 7.4.1-.2 4.1h7.8l2.4 1.5 2.6 10.8zM175.6 75.8l-68 39.1c-4.6 2.7-4 7.3 1.3 10.3l66 38.1c5.2 3 13.2 3.4 17.8.7l68-39c4.5-2.7 4-7.3-1.3-10.3l-66-38.1c-5.3-3-13.3-3.4-17.8-.8"/><path fill="#5793ce" d="M255.2 164.4l-11.7 6.8 43.3 25c2 1.2 2 3.1 0 4.3l-44.3 25.6a8.2 8.2 0 01-7.4 0l-43.3-25-11.7 6.7 43.3 25c8.5 5 22.4 5 30.9 0l44.3-25.5c8.5-5 8.5-13 0-17.9z"/><path fill="#d4ecff" d="M274.2 161.4c0 6.3-3.8 13.6-8.5 16.3l-78.5 45.4c-2.1 1.2-4 1.3-5.6.4L88 169.1l90.7-68.3 92.3 53.6.8.4c1.5 1.2 2.5 3.5 2.5 6.6"/><path fill="#173d7a" d="M178.6 100.8l92.3 53.6.8.4c1.5 1.2 2.5 3.5 2.5 6.6 0 3-.9 6.3-2.3 9.1l-105.3-60.7z"/><path fill="#5793ce" d="M172.6 101l-78.4 45.3c-4.8 2.8-8.6 10-8.6 16.3 0 6.3 3.8 9.2 8.6 6.5l78.4-45.3c4.8-2.7 8.6-10 8.6-16.3 0-6.3-3.8-9.2-8.6-6.5"/><path fill="#fff" d="M160.9 116.3l-9.4 5.5c-1 .5-1.7 2-1.7 3.2 0 1.3.7 1.8 1.7 1.3l9.4-5.5c1-.5 1.7-2 1.7-3.2 0-1.3-.8-1.8-1.7-1.3"/><path fill="#396caa" d="M90 275.9l16.2-9.2 16.4 9.7v4.2h-.2v.2h7.3v4.2h7.2v4.2h7.1v4.2h7.1v4.1l7.7.1 2.3 1.4 2.7 10.9v4.2l-1.3-4-11.6 1.5z"/><path fill="#d4ecff" d="M106.1 271l16.5 9.6-.2 4.4h7.3l-.2 4.2h7.3l-.2 4.2h7.4l-.2 4.2h7.3l-.2 4.1 7.8.1 2.4 1.4 2.6 10.9-12.9 1.7L90 280z"/><path fill="#396caa" d="M117 277.4a22.7 22.7 0 01-7.4 6.4c-2.4 1.3-5 2.4-7.7 3.3l-12-7 16.2-9.2z"/><path fill="#5793ce" d="M163.3 312.2l.4 1.9-2.1.2-51.4-30.1 2.7-1.5z"/><path fill="#d3d0cf" d="M51 262.6l-.1 6 1.9-4z"/><path fill="#396caa" d="M80 260.4c3.4-2 3.5-5.2 0-7.2-3.3-2-8.9-2-12.3 0-3.4 1.9-3.5 5.1 0 7.1 3.3 2 8.9 2 12.3 0m-19-11a52.5 52.5 0 0147.5.2c6.6 3.9 9.8 8.9 9.8 13.9l-.2 6.3-1.1-1.2c-1.5 3.1-4.4 6-8.7 8.5a52.5 52.5 0 01-47.5-.3c-13-7.7-13-20 .2-27.5"/><path fill="#f2f2f2" d="M79.8 266.3c3.5-1.9 3.5-5.1 0-7-3.3-2-8.9-2.1-12.3-.2-3.4 2-3.4 5.2 0 7.2s9 2 12.3 0m-19-11.1a52.5 52.5 0 0147.5.3c13.1 7.7 13 20-.2 27.5a52.5 52.5 0 01-47.5-.4c-13-7.6-13-20 .2-27.4"/><path fill="#5793ce" d="M76 252c-2.8-.5-6-.1-8.3 1.2-2.5 1.4-3.2 3.4-2.1 5.2l-6 4.7-6.2 7c-4.8-7-2.3-15.3 7.6-20.9 4.3-2.5 9.2-3.9 14.7-4.7z"/><path fill="#d4ecff" d="M79.8 266.3c3.5-1.9 3.5-5.1 0-7-3.3-2-8.9-2.1-12.3-.2-3.4 2-3.4 5.2 0 7.2s9 2 12.3 0m-19-11.1c3-1.7 6.3-3 10-4a51.1 51.1 0 0137.6 4.2c13 7.8 13 20-.3 27.6a52.5 52.5 0 01-47.5-.4c-13-7.6-13-20 .2-27.4"/><path fill="#396caa" d="M54.6 268.8c.6 3.8 3.5 7.5 8.5 10.5 11.6 6.8 30.6 7 42.3.3 5.8-3.3 8.8-7.7 8.8-12 .9 5-2 10-8.7 13.8a46.7 46.7 0 01-42.3-.3c-5.8-3.4-8.7-7.9-8.6-12.3"/><path fill="#396caa" d="M63 265c-2.4 0-5-.8-7.8-2.4a39.8 39.8 0 01-17.8-31.2c0-5.4 1.8-9.3 5-11.1 3.2-1.8 7.5-1.3 12 1.4a39.8 39.8 0 0117.8 31.2 16 16 0 01-1.8 8 8.5 8.5 0 01-3.2 3c-1.2.8-2.7 1.2-4.2 1.2m-16.3-50.6c-2.4 0-4.6.5-6.6 1.7-4.8 2.7-7.4 8-7.4 15.1-.1 13 8.9 28.8 20 35.4 6.2 3.6 12.1 4 16.9 1.4 2-1.1 3.6-2.8 4.9-4.9 1.6-2.8 2.4-6.2 2.5-10.3 0-12.9-9-28.8-20.1-35.3-3.6-2-7-3.1-10.2-3.1"/><path fill="#d4ecff" d="M69.2 254.5l9.3-2.3 1.4 7c-3.4-2-9-2-12.4 0z"/><path fill="#d4ecff" d="M60.8 255.2c3-1.7 6.3-3 10-4a51.1 51.1 0 0137.6 4.2l-38.3 1z"/><path fill="#396caa" d="M75 250.4s-4.1.6-8.4 2.1v-5.9c2-.7 5.4-1.7 8.2-2 8.8-1.2.1 5.8.1 5.8"/><path fill="#5793ce" d="M68.8 251.8a39 39 0 00-5.4 2c-5 2.4 1.4-6.5 1.4-6.5l4-1.4zM164.7 148.8L148 138l-8.2 1.4 19.9 9.6z"/><path fill="#173d7a" d="M144.5 94.4s-4.9 2.4-7.8-1.2a37 37 0 01-7.3-18c-.2-5.7 4.5-5.3 7.3-4 2.8 1.4 11 13.3 11.5 15.6.5 2.3-.6 5.4-1.4 6l-2.3 1.6"/><path fill="#5793ce" d="M145.5 95.5l.2-5c0-1-.5-2-1.4-2.5-.8-.5-2-.9-3.7-.6-3.6.6-4 1.6-4.2 6.6-.3 5 9.1 1.5 9.1 1.5"/><path fill="#173d7a" d="M126.8 104s-4.8 2.4-7.7-1.2a37 37 0 01-7.3-18c-.2-5.7 4.5-5.3 7.3-4 2.8 1.4 11 13.2 11.4 15.6.5 2.3-.5 5.4-1.3 6l-2.4 1.6"/><path fill="#5793ce" d="M127.9 105.1l.2-5c0-1-.5-2-1.4-2.5-.8-.5-2-.9-3.7-.6-3.6.6-4 1.6-4.2 6.6-.3 5 9 1.5 9 1.5"/><path fill="#d4ecff" d="M170.8 196.7c-1.4 23.2-25-3.4-25-3.4l-16.3-15.9-14.6-16a14.4 14.4 0 01-3.6-11.6l6-45a4.4 4.4 0 014.3-3.8c.7 0 1.4 0 2.2.2 5.3.8 5 5.8 5 5.8l-1.2 42 30.7 18.6s14 6 12.5 29.1"/><path fill="#5793ce" d="M139.3 157l-4.3 1.6c-.1 0-7.4-7-7.4-9.5l3.3-1 8.3 8zM164.7 148.8s18.2 10.4 20.4 14.8c.8 1.7 2.1 3.5-3.2 6l-24.3-17.3 1-6z"/><path fill="#d4ecff" d="M188.5 187.8c-1.5 23.1-25.1-3.4-25.1-3.4l-16.2-16-14.6-16a14.4 14.4 0 01-3.7-11.5l6-45a4.4 4.4 0 014.4-3.8c.6 0 1.3 0 2.2.2 5.2.8 4.8 5.8 4.8 5.8l-1 42 30.6 18.5s14 8 12.6 29.2"/><path fill="#5793ce" d="M174.5 262.3c18-7.4 17.6-18 17.6-18s-3.6-39-2.4-65c.5-10.8-57.7-11.6-49 17.3 10.2 34.2 6.4 61.9 11.2 66 4.8 4.2 18 1.6 22.6-.3"/><path fill="#ffc2b0" d="M180.2 252.9c-.9-3.7-5.7-5.6-10.6-4.3-5 1.3-8.2 5.3-7.3 9 1 3.6 5.7 5.5 10.7 4.2 5-1.3 8.2-5.3 7.2-9"/><path fill="#fff" d="M169.9 261.3c-3.3 0-6.1-1.5-6.8-4-.4-1.5 0-3.1 1.3-4.6 1.2-1.5 3.2-2.7 5.4-3.3 4.5-1.1 8.8.5 9.6 3.7.4 1.5 0 3.1-1.3 4.6a10.2 10.2 0 01-5.3 3.3l-2.9.3m2.7-14a13 13 0 00-9.5 4.3 6.9 6.9 0 00-1.6 6.1c1 4.1 6.3 6.3 11.7 5a12 12 0 006.3-4c1.5-1.8 2-4 1.6-6-.9-3.3-4.4-5.3-8.5-5.3"/><path fill="#ffc2b0" d="M167.3 263.1s.1-.7-.2-6.4c0-1.8 6.2-3.5 7.8-1.8 1.6 1.6 1 3.3 1.4 9.4.3 6-9-1.2-9-1.2"/><path fill="#ea9c92" d="M176.3 264.3s-1.6-5.7-9.2-7.9l.1 5.2z"/><path fill="#ffc2b0" d="M181 278.6a13.8 13.8 0 10-26.7-7 13.8 13.8 0 0026.8 7"/><path fill="#ea9c92" d="M170.9 274.6s-7.6-3.2-13-3.3c-5.2 0-4 4.4-4 4.4l15.6 2.3z"/><path fill="#ff2c9c" d="M156.4 273.8s6.6 2.8 12.5 1.6a6 6 0 003.5-2 2 2 0 011-.8c1-.3 2.8 4 4.8 4.1 2 .1 3.3-1.3 1.7-4-1.7-2.6-1.1-5.5-.4-6 .8-.4 8.8 5.8 1.7 19.8-7 14-25 6.5-27.8 3.6 0 0-3-2.6-5.4-.3 0 0-2.6-20 8.4-16"/><path fill="#ffc2b0" d="M182 215.8v-10.5c0-1.2-.5-2.4-1.4-3.2L159 182.4l2.4-3.7 28.6 20.7c1.3 1 2.2 2.4 2.3 4l2 18.4z"/><path fill="#5793ce" d="M190.5 249.5s6.6-9.8 9-35.8c0 0-11.2-3.6-17.5-1.6-6.4 2.1 8.5 37.4 8.5 37.4"/><path fill="#396caa" d="M180.8 237s-2.6-13.7-2.7-20.1c0-1.8 1-3.4 2.7-4z"/><path fill="#173d7a" d="M175.2 168.8l-4.8.6-30.8 17.8c-1 .6-2.7.5-3.9-.2L114 174.4l-2.9.4V172c0-.3.2-.7.7-1l34.9-20.1c1-.6 2.7-.5 3.9.1l23.7 13.7c.7.4 1 .9 1 1.3z"/><path fill="#396caa" d="M152 180l-2.2 1.3h-24l-11.9-6.9-2.9.4V172c0-.3.2-.7.7-1l34.9-20.1c.5-.3 1.3-.5 2-.4z"/><path fill="#5793ce" d="M112.3 174.6l-1.3.2V172c0-.3.2-.7.7-1l.6-.3z"/><path fill="#274f89" d="M147 150.6c.9-.4 2.2-.3 3.2.2v4.9H147z"/><path fill="#fff" d="M146.6 153.6l-35 20.2c-1 .6-.8 1.6.4 2.2l23.7 13.7c1.2.7 2.9.8 3.9.2l35-20.2c1-.5.8-1.5-.4-2.2l-23.7-13.7c-1.2-.7-3-.7-3.9-.2"/><path fill="#d4ecff" d="M146 156.7l-29 16.8c-.9.4-.7 1.3.2 1.8l12.7 7.2c1 .5 2.4.6 3.3.1l29-16.8c.8-.4.7-1.3-.2-1.8l-12.8-7.2c-1-.5-2.4-.6-3.2-.1"/><path fill="#ffc2b0" d="M137 190.4l-.3-2.4c-.3-2-.2-4.1.2-6.2l.4-2.1a3 3 0 012.4-2.3c1-.2 1.8.4 2 1.4l.5 5.1s1.3-1.7 2-1.7c.6 0-.7 5.2-2.2 8-1.4 3-5 .2-5 .2"/><path fill="#ffc2b0" d="M149 228.7l-3.8-7.4c-1-1.8-1.4-3.7-1.6-5.6l-1.6-25.4-5 .1-2.2 28.5c0 .9 0 1.8.2 2.6l2.5 14.5z"/><path fill="#173d7a" d="M145.4 151.7l-3 3.8-30.7 17.8c-1 .6-1.8 2.2-1.8 3.5V202l-1.7 2.3 1.6 1c.4.2.8.2 1.2-.1l35-20.2c1-.6 1.7-2.1 1.7-3.4V154c0-.7-.3-1.3-.7-1.5z"/><path fill="#396caa" d="M124.1 166.2l-2.2 1.2-12 20.9V202l-1.7 2.3 1.6 1c.4.2.8.2 1.2-.1l35-20.2c.5-.3 1-.9 1.3-1.6z"/><path fill="#5793ce" d="M109 203.3l-.8 1 1.6 1c.4.2.8.2 1.2-.1l.7-.4z"/><path fill="#274f89" d="M146.3 184.8c.7-.7 1.3-1.9 1.4-3l-3.4-2-1.6 2.9z"/><path fill="#5793ce" d="M144.3 184l-35 20.2c-1 .6-1.7 0-1.7-1.3v-27.5c0-1.3.8-2.8 1.7-3.4l35-20.2c1-.6 1.7 0 1.7 1.3v27.5c0 1.3-.7 2.8-1.7 3.4"/><path fill="#ffc2b0" d="M161.4 178.7l-.5-1.2a7.8 7.8 0 00-3-3.2l-3.4-2.1a3.5 3.5 0 00-3.7 0c-1 .6-1.2 2.2-.3 3.2l3.7 3.7s-2-1.6-2.6-1c-.5.5 2 2.8 3.8 2.8 1.8.1 3.6 1.5 3.6 1.5z"/><path fill="#5793ce" d="M152.3 262.7S139 248.3 133.6 235c0 0 4.6-8.2 15.7-11.4 11-3.2 3 39.1 3 39.1"/><path fill="#396caa" d="M146.8 224.5l2.1 20.8-5-19.5c.9-.5 1.8-1 2.9-1.3"/><path fill="#fff" d="M162.2 265.6l-3.6 1s1.7-2.7 4.2-3.4c2.5-.6 2.9 1.5 2.9 1.5z"/><path fill="#d4ecff" d="M94.5 315.4a7.8 7.8 0 110-15.7 7.8 7.8 0 010 15.7m0-17.8a10 10 0 100 20 10 10 0 000-20"/><path fill="#5793ce" d="M296.6 237.5a5 5 0 110-9.8 5 5 0 010 9.8m0-12a7.1 7.1 0 100 14.2 7.1 7.1 0 000-14.2M62.2 106.3l3-6 5.8 3-2.9 5.8zm2-8.8l-4.9 9.8 9.8 4.8 4.8-9.8zM204.3 258l2.9-6 5.8 3-2.9 5.8zm1.9-8.9l-4.8 9.8 9.7 4.8 4.9-9.7zM53.2 152.6l-4.5-2.2-2.2 4.5 4.5 2.2z"/><path fill="#d3008d" d="M227.3 302.2l-26.7 15.5c-.6.3-1 .3-1.4 0v.1l-2.6-1.5 1.8-.7v-19.4c0-1.6 1-3.4 2.2-4.1l25.5-14.8V275l2.7 1.5c.4.3.7.9.7 1.8V298c0 1.6-1 3.5-2.2 4.1"/><path fill="#ff2c9c" d="M224.7 275.1l-26.8 15.4c-1.2.7-2.1 2.6-2.1 4.2v19.8c0 1.6 1 2.3 2.1 1.7l26.8-15.5c1.2-.7 2.1-2.5 2.1-4v-20c0-1.6-1-2.3-2.1-1.6"/><path fill="#fff" d="M207 297.4c0-1.2-.9-1.6-1.9-1a4 4 0 00-1.8 3c0 1.2.8 1.7 1.8 1.1a4 4 0 001.8-3.1M212.4 294.2c0-1.1-.8-1.6-1.8-1a4 4 0 00-1.8 3.1c0 1.2.8 1.6 1.8 1a4 4 0 001.8-3M217.9 291c0-1-.9-1.5-1.8-1a4 4 0 00-1.9 3.2c0 1.1.9 1.6 1.9 1a4 4 0 001.8-3.1"/><path fill="#5793ce" d="M42.5 133l-26.3 15.2c-.5.3-1 .3-1.3.1l-2.6-1.4 1.8-.7v-19c0-1.6 1-3.4 2.1-4.1l25.1-14.5v-2.2l2.6 1.5c.4.2.7.8.7 1.7V129c0 1.5-1 3.3-2.1 4"/><path fill="#d4ecff" d="M39.9 106.5l-26.2 15.1c-1.2.7-2.2 2.5-2.2 4v19.5c0 1.6 1 2.3 2.2 1.6l26.2-15.1c1.1-.7 2-2.5 2-4V108c0-1.6-.9-2.3-2-1.6"/><path fill="#fff" d="M22.5 128.3c0-1.1-.8-1.6-1.8-1a4 4 0 00-1.8 3c0 1.2.8 1.7 1.8 1.1a4 4 0 001.8-3M27.8 125.2c0-1-.8-1.6-1.7-1a4 4 0 00-1.8 3c0 1.2.8 1.7 1.8 1.1a4 4 0 001.7-3M33.2 122.1c0-1-.8-1.5-1.8-1a4 4 0 00-1.7 3c0 1.2.7 1.7 1.7 1.1a4 4 0 001.8-3"/></g></svg>